<svg width="53" height="52" viewBox="0 0 53 52" fill="none" xmlns="http://www.w3.org/2000/svg">
<path d="M0.435548 26.0015C0.435547 11.6586 12.092 0.00146433 26.4355 0.00146371C40.7791 0.00146308 52.4355 11.6579 52.4355 26.0014C52.4355 40.345 40.7791 52.0014 26.4355 52.0014C12.0915 52.0014 0.435549 40.345 0.435548 26.0015ZM3.10198 26.0015C3.10198 38.9038 13.533 49.3348 26.4353 49.3348C39.3376 49.3348 49.7686 38.9037 49.7686 26.0014C49.7686 13.0992 39.3376 2.66813 26.4353 2.66813C13.533 2.66813 3.10197 13.0992 3.10198 26.0015ZM9.10173 26.0015C9.10173 25.6931 9.28728 25.2835 9.47654 25.0849L20.1434 13.7517C20.6415 13.2369 21.4586 13.1876 22.0394 13.7103C22.5584 14.1776 22.5612 15.0779 22.0808 15.5853L13.5182 24.6687L42.4348 24.6687C43.1714 24.6687 43.768 25.2658 43.768 26.0019C43.768 26.7386 43.1709 27.3352 42.4348 27.3352L13.5182 27.3352L22.0808 36.4186C22.5607 36.926 22.537 37.8248 22.0394 38.3146C21.5139 38.8312 20.634 38.7749 20.1434 38.2518L9.47654 26.9186C9.16311 26.6112 9.10684 26.315 9.10173 26.002L9.10173 26.0015Z" fill="white"/>
</svg>
