<svg width="53" height="52" viewBox="0 0 53 52" fill="none" xmlns="http://www.w3.org/2000/svg">
<path d="M52.564 26.0016C52.564 11.6587 40.9075 0.00157115 26.564 0.00157052C12.2204 0.00156989 0.563987 11.658 0.563987 26.0016C0.563986 40.3451 12.2204 52.0015 26.564 52.0015C40.908 52.0015 52.564 40.3451 52.564 26.0016ZM49.8975 26.0016C49.8975 38.9039 39.4665 49.3349 26.5642 49.3349C13.662 49.3349 3.23089 38.9038 3.23089 26.0016C3.23089 13.0993 13.662 2.66824 26.5642 2.66824C39.4665 2.66824 49.8975 13.0993 49.8975 26.0016ZM43.8978 26.0016C43.8978 25.6932 43.7122 25.2836 43.523 25.085L32.8561 13.7518C32.358 13.237 31.541 13.1877 30.9601 13.7104C30.4411 14.1777 30.4384 15.078 30.9187 15.5854L39.4813 24.6688L10.5647 24.6688C9.82809 24.6688 9.23148 25.2659 9.23148 26.0021C9.23148 26.7387 9.82857 27.3353 10.5647 27.3353L39.4813 27.3353L30.9187 36.4187C30.4388 36.9261 30.4625 37.8249 30.9601 38.3147C31.4856 38.8313 32.3655 38.775 32.8561 38.2519L43.523 26.9187C43.8364 26.6113 43.8927 26.3151 43.8978 26.0021L43.8978 26.0016Z" fill="white"/>
</svg>
