<svg width="53" height="53" viewBox="0 0 53 53" fill="none" xmlns="http://www.w3.org/2000/svg">
<path d="M52.5645 26.5001C52.5645 12.1573 40.908 0.500122 26.5645 0.500121C12.2209 0.50012 0.564476 12.1565 0.564475 26.5001C0.564474 40.8437 12.2209 52.5001 26.5645 52.5001C40.9085 52.5001 52.5645 40.8437 52.5645 26.5001ZM49.898 26.5001C49.898 39.4025 39.467 49.8334 26.5647 49.8334C13.6624 49.8334 3.23138 39.4024 3.23138 26.5001C3.23138 13.5979 13.6624 3.16679 26.5647 3.16679C39.467 3.16679 49.898 13.5979 49.898 26.5001ZM43.8983 26.5001C43.8983 26.1918 43.7127 25.7821 43.5235 25.5835L32.8566 14.2503C32.3585 13.7355 31.5414 13.6862 30.9606 14.2089C30.4416 14.6763 30.4388 15.5766 30.9192 16.0839L39.4818 25.1674L10.5652 25.1674C9.82857 25.1674 9.23197 25.7645 9.23197 26.5006C9.23197 27.2372 9.82906 27.8338 10.5652 27.8338L39.4818 27.8338L30.9192 36.9173C30.4393 37.4246 30.463 38.3235 30.9606 38.8132C31.4861 39.3299 32.366 39.2736 32.8566 38.7504L43.5235 27.4172C43.8369 27.1098 43.8932 26.8136 43.8983 26.5007L43.8983 26.5001Z" fill="#76A09F"/>
</svg>
