<svg width="53" height="53" viewBox="0 0 53 53" fill="none" xmlns="http://www.w3.org/2000/svg">
<path d="M0.435548 26.5C0.435547 12.1571 12.092 0.499999 26.4355 0.499999C40.7791 0.499998 52.4355 12.1564 52.4355 26.5C52.4355 40.8435 40.7791 52.5 26.4355 52.5C12.0915 52.5 0.435549 40.8436 0.435548 26.5ZM3.10198 26.5C3.10198 39.4024 13.533 49.8333 26.4353 49.8333C39.3376 49.8333 49.7686 39.4022 49.7686 26.5C49.7686 13.5977 39.3376 3.16666 26.4353 3.16666C13.533 3.16666 3.10197 13.5977 3.10198 26.5ZM9.10173 26.5C9.10173 26.1917 9.28728 25.782 9.47654 25.5834L20.1434 14.2502C20.6415 13.7354 21.4586 13.6861 22.0394 14.2088C22.5584 14.6762 22.5612 15.5764 22.0808 16.0838L13.5182 25.1673L42.4348 25.1673C43.1714 25.1673 43.768 25.7644 43.768 26.5005C43.768 27.2371 43.1709 27.8337 42.4348 27.8337L13.5182 27.8337L22.0808 36.9171C22.5607 37.4245 22.537 38.3233 22.0394 38.8131C21.5139 39.3297 20.634 39.2735 20.1434 38.7503L9.47654 27.4171C9.16311 27.1097 9.10684 26.8135 9.10173 26.5005L9.10173 26.5Z" fill="#76A09F"/>
</svg>
